<svg width="25" height="25" fill="none" xmlns="http://www.w3.org/2000/svg"><g clip-path="url('#clip0_465_1245')" fill="#000"><path d="M0 13.379V11.62c.037-.289.07-.578.113-.866C.416 8.693 1.155 6.805 2.4 5.13 4.382 2.466 7.006.81 10.276.198c.446-.083.897-.133 1.345-.198h1.758c.394.053.789.092 1.18.16 2.833.496 5.251 1.78 7.176 3.919 2.598 2.886 3.633 6.29 3.149 10.135-.288 2.283-1.186 4.33-2.64 6.117-1.957 2.407-4.465 3.906-7.52 4.472-.446.082-.896.133-1.345.198H11.62c-.289-.038-.578-.071-.865-.114-2.062-.302-3.95-1.043-5.625-2.287C2.466 20.618.81 17.995.198 14.725c-.084-.446-.133-.897-.198-1.346Zm12.5 9.868c5.925 0 10.738-4.805 10.748-10.73.01-5.935-4.8-10.757-10.736-10.764C6.58 1.745 1.757 6.56 1.753 12.493c-.003 5.933 4.815 10.754 10.748 10.754Z"/><path d="M11.194 13.46c.02-1.1.495-1.946 1.37-2.597.312-.23.603-.497.866-.782.141-.154.237-.371.295-.576.158-.563-.093-1.036-.634-1.259-.878-.361-1.77-.103-2.314.669-.325.461-.627.563-1.1.37-.437-.18-.644-.575-.552-1.07.118-.645.507-1.116 1.055-1.421 1.493-.83 3.018-.808 4.474.054 1.238.733 1.538 2.145.836 3.45-.354.658-.868 1.173-1.448 1.63-.401.315-.78.657-.881 1.186-.055.285-.06.58-.073.872-.015.339-.14.56-.47.621-.296.056-.612.06-.911.022-.294-.037-.42-.29-.463-.562-.032-.2-.034-.404-.049-.607h-.001ZM10.883 17.085c0-.705.547-1.264 1.24-1.265a1.267 1.267 0 0 1 1.276 1.262 1.285 1.285 0 0 1-1.274 1.273 1.261 1.261 0 0 1-1.242-1.27Z"/></g><defs><clipPath id="clip0_465_1245"><path fill="#fff" d="M0 0h25v25H0z"/></clipPath></defs></svg>